# xmcd CD database file
#
# Track frame offsets:
#	150
#	13445
#	37977
#
# Disc length: 4440 seconds
#
# Revision: 0
# Processed by: cddbd v1.5PL3 Copyright (c) Steve Scherf et al.
# Submitted via: CDex 1.50
#
DISCID=1e115603
DTITLE=keison - 男の世界 ★MANDAM★LOVERS OF THE WORLD
DYEAR=2003
DGENRE=JPop
TTITLE0=男の世界 ★MANDAM★LOVERS OF THE WORLD
TTITLE1=男の世界 ★MANDAM★LOVERS OF THE WORLD (Instrumental)
TTITLE2=CCCD
EXTD=YEAR: 2003
EXTT0=
EXTT1=
EXTT2=
PLAYORDER=
